#!OML:ASF X:\für Bonn\!DataBase\2005_08_10_Bjorn_Final\c3d\bjorn.ASF
:FULLY-SPECIFIED
:DEGREES
552
root -1.20727 1.56649 21.8113 -443.6 -168.914 7.32583
lowerback -6.4632 1.41111 -11.611
upperback 1.65659 2.49186 -7.72857
thorax 5.22492 0.664373 -1.42877
lowerneck -17.6344 -7.84965 -5.37623
upperneck 8.43902 -10.9937 9.48244
head 6.26165 -5.0164 2.66386
rclavicle -1.59028e-014 6.75868e-015
rhumerus -211.361 -192.087 137.471
rradius 118.602
rwrist -14.1351
rhand -18.5759 12.3826
rfingers 7.12502
rthumb 7.71447 -17.4567
lclavicle -1.59028e-014 6.75868e-015
lhumerus -352.615 -42.4359 -332.461
lradius 89.2335
lwrist -11.5594
lhand -58.2806 -29.7318
lfingers 7.12502
lthumb -30.5135 -2.23873
rfemur -193.481 -159.911 183.003
rtibia 24.03
rfoot 14.321 -1.868
rtoes 3.46074
lfemur -51.9902 6.4544 -27.2563
ltibia 96.6415
lfoot 26.3178 17.3893
ltoes -2.03712
553
root -1.19902 1.56799 21.8103 -443.553 -168.877 7.32698
lowerback -6.53151 1.43046 -11.564
upperback 1.61256 2.52094 -7.71857
thorax 5.21633 0.682002 -1.43887
lowerneck -17.8063 -7.94806 -5.49051
upperneck 8.47107 -11.1233 9.61339
head 6.32446 -5.07021 2.7001
rclavicle -1.59028e-014 2.5842e-015
rhumerus -212.836 -192.111 136.939
rradius 119.413
rwrist -14.0635
rhand -18.6603 12.4444
rfingers 7.12502
rthumb 7.63306 -17.3979
lclavicle -1.59028e-014 2.5842e-015
lhumerus -353.559 -42.7909 -331.921
lradius 89.7304
lwrist -11.5828
lhand -58.3317 -29.8277
lfingers 7.12502
lthumb -30.5623 -2.34376
rfemur -193.439 -159.94 182.948
rtibia 23.9763
rfoot 14.1238 -2.43282
rtoes 4.78832
lfemur -52.0212 5.97586 -27.2852
ltibia 96.6105
lfoot 26.2663 17.6838
ltoes -2.11261
554
root -1.19171 1.5688 21.8093 -443.5 -168.858 7.3649
lowerback -6.61053 1.42725 -11.4858
upperback 1.5751 2.52298 -7.70965
thorax 5.22408 0.687818 -1.46948
lowerneck -17.9746 -8.02991 -5.57723
upperneck 8.49349 -11.232 9.72211
head 6.37936 -5.11455 2.72786
rclavicle 1.59028e-014 -3.47873e-014
rhumerus -214.223 -192.127 136.389
rradius 120.11
rwrist -13.9238
rhand -18.7506 12.5441
rfingers 7.12502
rthumb 7.54593 -17.3013
lclavicle 1.59028e-014 -3.47873e-014
lhumerus -354.554 -43.0958 -331.323
lradius 90.2078
lwrist -11.6837
lhand -58.2642 -29.8227
lfingers 7.12502
lthumb -30.4979 -2.32678
rfemur -193.392 -159.888 182.919
rtibia 23.9109
rfoot 13.9587 -2.91541
rtoes 6.00396
lfemur -52.0642 5.45244 -27.3037
ltibia 96.5791
lfoot 26.2625 17.9831
ltoes -2.12882
555
root -1.18616 1.57067 21.8099 -443.45 -168.839 7.42572
lowerback -6.68846 1.40858 -11.4055
upperback 1.53203 2.50516 -7.69382
thorax 5.22622 0.685221 -1.49586
lowerneck -18.0688 -8.10239 -5.64167
upperneck 8.47212 -11.3284 9.80733
head 6.40459 -5.15707 2.74921
rclavicle 0 3.77691e-015
rhumerus -215.544 -192.143 135.849
rradius 120.717
rwrist -13.7482
rhand -18.8496 12.5351
rfingers 7.12502
rthumb 7.4503 -17.3137
lclavicle 0 3.77691e-015
lhumerus -355.595 -43.4012 -330.669
lradius 90.6593
lwrist -11.8358
lhand -58.2885 -29.715
lfingers 7.12502
lthumb -30.521 -2.2233
rfemur -193.337 -159.809 182.883
rtibia 23.8459
rfoot 13.8292 -3.401
rtoes 7.30468
lfemur -52.1073 4.89887 -27.3312
ltibia 96.5397
lfoot 26.2695 18.2233
ltoes -2.44303
556
root -1.18165 1.57245 21.809 -443.397 -168.818 7.50578
lowerback -6.75904 1.3824 -11.3242
upperback 1.47877 2.47454 -7.68561
thorax 5.21427 0.677198 -1.5322
lowerneck -18.1087 -8.14691 -5.66506
upperneck 8.42427 -11.3965 9.88674
head 6.40785 -5.18752 2.7681
rclavicle 3.65764e-014 -1.06747e-013
rhumerus -216.841 -192.124 135.266
rradius 121.29
rwrist -13.5645
rhand -18.8082 12.6057
rfingers 7.12502
rthumb 7.49032 -17.2417
lclavicle 3.65764e-014 -1.06747e-013
lhumerus -356.719 -43.6812 -329.908
lradius 91.0704
lwrist -12.0589
lhand -58.317 -29.6283
lfingers 7.12502
lthumb -30.5482 -2.14166
rfemur -193.296 -159.664 182.849
rtibia 23.7836
rfoot 13.7349 -3.84023
rtoes 8.56386
lfemur -52.1787 4.33045 -27.3655
ltibia 96.5174
lfoot 26.2458 18.5355
ltoes -2.58258
557
root -1.17686 1.57388 21.8088 -443.347 -168.795 7.6244
lowerback -6.84389 1.3256 -11.2781
upperback 1.44574 2.41476 -7.64988
thorax 5.23148 0.653726 -1.52333
lowerneck -18.1415 -8.19241 -5.6874
upperneck 8.33993 -11.4578 9.94013
head 6.39582 -5.21718 2.78029
rclavicle -3.97569e-014 9.12422e-014
rhumerus -218.015 -192.126 134.722
rradius 121.812
rwrist -13.4679
rhand -18.7507 12.657
rfingers 7.12502
rthumb 7.54574 -17.1884
lclavicle -3.97569e-014 9.12422e-014
lhumerus -357.916 -43.9125 -329.065
lradius 91.4881
lwrist -12.2685
lhand -58.3897 -29.4401
lfingers 7.12502
lthumb -30.6176 -1.96649
rfemur -193.246 -159.514 182.814
rtibia 23.7211
rfoot 13.5963 -4.27438
rtoes 9.53646
lfemur -52.2469 3.71743 -27.4074
ltibia 96.4746
lfoot 26.3355 18.7553
ltoes -3.26543
